<svg height="100" viewBox="0 0 238 100" width="238" xmlns="http://www.w3.org/2000/svg" xmlns:xlink="http://www.w3.org/1999/xlink"><defs><path id="a" d="m1.708 55v-23.664h15.028l-.714 4.862h-7.31v5.168h6.426v4.862h-6.426v8.772zm21.998.68c-1.8360092 0-3.2469951-.5156615-4.233-1.547s-1.479-2.4876573-1.479-4.369v-20.06l6.732-.68v20.468c0 .6120031.2719973.918.816.918.2493346 0 .4873322-.0453329.714-.136l1.19 4.794c-1.0653387.408002-2.3119929.612-3.74.612zm21.76-9.996c0 .5666695-.0453329 1.2806624-.136 2.142h-11.016c.1813342 1.2240061.5609971 2.0456646 1.139 2.465s1.4109946.629 2.499.629c.6346698 0 1.2806634-.130332 1.938-.391s1.3826627-.6629973 2.176-1.207l2.72 3.672c-2.1986777 1.7906756-4.6919861 2.686-7.48 2.686-3.2186828 0-5.6553251-.8896578-7.31-2.669s-2.482-4.1309854-2.482-7.055c0-1.8133424.3456632-3.4623259 1.037-4.947s1.7169932-2.663329 3.077-3.536 3.0033237-1.309 4.93-1.309c1.7906756 0 3.35466.3739963 4.692 1.122s2.3743296 1.8359929 3.111 3.264c.7366703 1.4280071 1.105 3.1393234 1.105 5.134zm-6.63-1.904c-.0226668-1.0653387-.1869985-1.8926637-.493-2.482s-.8556627-.884-1.649-.884c-.7480037 0-1.3089981.2606641-1.683.782s-.6176661 1.4619932-.731 2.822h4.556zm20.06 1.496 5.61 9.724h-7.514l-2.38-6.256-2.176 6.256h-7.242l5.542-9.52-5.066-8.636h7.446l1.768 5.338 1.598-5.338h7.038zm17.85-9.112c2.1986777 0 3.864661.8556581 4.998 2.567s1.7 4.1196511 1.7 7.225c0 1.858676-.2889971 3.5246593-.867 4.998s-1.4166612 2.6293291-2.516 3.468-2.3969925 1.258-3.893 1.258c-.9746715 0-1.8643293-.1983313-2.669-.595s-1.4789973-.9463298-2.023-1.649l-.238 1.564h-5.984v-25.296l6.732-.68v9.418c.4986692-.6800034 1.1786624-1.2296646 2.04-1.649s1.7679952-.629 2.72-.629zm-2.618 14.722c.7706705 0 1.3656646-.3739963 1.785-1.122s.629-2.0173244.629-3.808c0-1.9493431-.1869981-3.2639966-.561-3.944s-.9123298-1.02-1.615-1.02c-.929338 0-1.7226634.566661-2.38 1.7v6.868c.5213359.8840044 1.2353288 1.326 2.142 1.326zm19.992-14.722c2.9013478 0 5.1849917.8499915 6.851 2.55 1.666008 1.7000085 2.499 4.1139844 2.499 7.242 0 1.9493431-.379663 3.6606593-1.139 5.134s-1.84166 2.6066627-3.247 3.4c-1.4053404.7933373-3.0599905 1.19-4.964 1.19-2.9013478 0-5.1849917-.8499915-6.851-2.55s-2.499-4.1139844-2.499-7.242c0-1.9493431.3796629-3.6606593 1.139-5.134s1.8416596-2.6066627 3.247-3.4 3.0599905-1.19 4.964-1.19zm0 4.828c-.8613376 0-1.4846647.3853295-1.87 1.156s-.578 2.0173247-.578 3.74c0 1.7906756.1926647 3.0656629.578 3.825s1.0086624 1.139 1.87 1.139 1.4846647-.3853295 1.87-1.156.578-2.0173247.578-3.74c0-1.7906756-.1926647-3.0656629-.578-3.825s-1.0086624-1.139-1.87-1.139zm22.95 4.284 5.61 9.724h-7.514l-2.38-6.256-2.176 6.256h-7.242l5.542-9.52-5.066-8.636h7.446l1.768 5.338 1.598-5.338h7.038z"/></defs><g fill="none" fill-rule="evenodd" transform="translate(-1 -4)"><g transform="matrix(.99026807 .1391731 -.1391731 .99026807 111.718727 .917723)"><path d="m87.9154565 76.6304617c-.1526087 0-.3055435-.0152664-.4548913-.0454745-.4398913-.089-.8409782-.3040292-1.1595652-.6217007l-12.4219565-12.4252445-.1301087-.2299708c-.2729348-.4813796-.4017391-1.0209015-.3821739-1.6036241.0045652-.1487664.0198913-.3050037.0453261-.4609161.0430434-.2631022.1160869-.5349744.2175-.8074963.0427173-.1162847.0929347-.236792.1480434-.3576241.5178261-1.1404343 1.3845653-2.0518723 1.6376087-2.3042555l.0234783-.023062c.4023913-.3875073.8432609-.7386351 1.3108696-1.0436387.3110869-.203011.6215217-.3767883.9225-.5167847.6375-.2949343 1.2515217-.4446752 1.8257608-.4446752.5201087 0 1.0046739.1188832 1.4396739.3534015l.1134783.0610657.4454348.322219 12.1936956 12.1455766c.6205435.6184526.8311957 1.5178723.5497826 2.3481058-.2947826.8656387-1.072826 1.4672008-1.9826087 1.5341132-.0844565.0061715-.3890217.0877007-.8386956.3930292-.1682609.1133613-.3228261.2374416-.4646739.3722409-.0701087.0714598-.2279348.2400401-.3961957.4836532-.0981521.1416205-.18.2793431-.2442391.4105694-.0270652.0548941-.0531522.1133613-.075.1731277-.0436957.1172591-.0476087.1724781-.0479348.1747518-.0469565.688938-.3981522 1.308365-.963913 1.701719-.1702174.1188832-.3544565.2130803-.5494565.281292-.2429348.085427-.5002174.1296022-.7617392.1296022" fill="#303338"/><path d="m92.1128804 70.5669307c.1376087-.0097446.2347826-.1013431.2732609-.2147044s.0182609-.2484854-.0792391-.3456059l-12.0841305-12.0370876s0 0-.000326 0l-.2158696-.1562372c-.4141304-.2228248-.9675-.1062153-1.5084783.1445438-.2318478.1071898-.461413.2393905-.6763043.3797117-.3665218.2390657-.7076087.510938-1.0232609.8146423-.39.3884818-.9335869 1.0579307-1.2407609 1.7345256-.0342391.0753576-.0655434.1503905-.0932608.2254233-.0554348.1500657-.0975.2988322-.1209783.4433759-.0117391.0724344-.0192391.1438942-.0215217.21373-.0068479.2098321.0316304.4066715.1304348.5807737l12.2318478 12.2355511c.0485869.0483978.1063043.0776314.1663043.0896496.0593479.0120183.1209783.0068212.1767392-.0126679.0280434-.0097445.0547826-.0233868.078913-.0402773.0730435-.0506716.1252174-.1312263.1320652-.2341935.0159783-.2374416.0756522-.4804051.1643478-.7194708.0443479-.119208.0955435-.2377664.1526087-.3540511.1134783-.2322445.2491305-.4557189.3913044-.6610036.2129348-.3076022.4415217-.5742774.6352174-.767219.2282608-.2192518.4728261-.4167409.7346739-.5931168.5161956-.3504781 1.1768478-.6817919 1.796413-.7262919" fill="#1fa19c"/><path d="m88.2944022 73.9529259c-.1425.2049599-.2778261.4287591-.3913044.6610037-.0101087.0207883-.0172826.0422262-.0270652.0630146.0511957.0061715.1033696.0022737.1513044-.014292.0280434-.0100694.0547826-.0233869.078913-.0402774.0727174-.0506715.1252174-.1315511.1320652-.2341934.0107609-.1611095.0476087-.3241679.093587-.4872263-.0123913.017865-.0251087.0341058-.0375.0519708" fill="#fff"/><path d="m92.3068043 70.006588-12.0841304-12.0370876s0 0-.0003261 0l-.2158695-.1562373c-.4141305-.2228248-.9675-.1062153-1.5084783.1445438-.2318478.1071898-.461087.2393905-.6763043.3797117-.3665218.2393905-.7076087.510938-1.0232609.8146423-.39.3884818-.9332609 1.0579307-1.2407609 1.7345256-.0342391.0753577-.0652174.1503905-.0929348.2254234-.0316304.0847773-.0570652.1689051-.078913.2520583.2543478-.3631459.5331522-.6863394.7604348-.9127372.3156521-.3037044.6567391-.5752518 1.0232608-.8146423.2152174-.1403212.4444566-.2725219.6763044-.3797117.5409782-.2507591 1.0943478-.3673686 1.5084782-.1445438l.2158696.1562372h.0003261l11.5959783 11.5508358c.3097826-.1344744.6332608-.2302956.9463043-.252708.1376087-.0097446.2347826-.1013431.2732609-.2147044.0384782-.1133613.0182608-.2484854-.0792392-.3456058" fill="#fff"/><path d="m100.507402 88.9871372c-.5651085 0-1.0884781-.1162846-1.5557607-.3459306l-.2986956-.1474672-10.2257609-10.409427-.0511957-.0617153c-.8660869-1.0394161-1.1051087-2.3003577-.6743478-3.5548029.4327174-1.3869708 1.4236957-2.4481497 1.7194565-2.743084.1940218-.1929416 1.9614131-1.8946606 4.0516305-1.8946606.9313043 0 1.7625.3378103 2.403913.9760767l10.6936957 10.4230693.14413.277719c.584022 1.1219197.735326 3.0026131-1.860978 5.5901095-.619239.6168285-2.496196 1.8901131-4.346087 1.8901131" fill="#303338"/><path d="m104.977696 82.4038982-10.4843482-10.219084c-1.0917391-1.087489-3.0551087.2868139-3.6893478.918584-.4216304.419989-1.0063043 1.1862336-1.2423913 1.9696934-.2201087.6168285-.1131522 1.1852591.3198913 1.705292l9.9368478 10.1151423c1.1191302.5508905 3.0821742-.6074087 3.6508692-1.1738905.672392-.6697737 2.079457-2.2188285 1.508479-3.3157372" fill="#1fa19c"/><path d="m90.8040652 74.7273883c.6339131-.6314452 2.5976087-2.006073 3.6890218-.9185839l10.364022 10.1015c.251087-.5164599.357717-1.0504599.120652-1.5065037l-10.484674-10.2190839c-1.0914131-1.0874891-3.0551087.2871387-3.6890218.9185839-.4216304.4199891-1.0063043 1.1862336-1.2427174 1.9696935-.1731521.485927-.1402174.9409963.0916305 1.3668321.2732608-.6905621.7757608-1.3388978 1.1510869-1.712438" fill="#fff"/><path d="m12.3446413 24.4360219c-.6665217 0-1.3121739-.2504343-1.8176087-.7055037-.1809783-.1630583-.3378261-.3469051-.4672826-.5479671-.29934783-.4651387-.44315217-.9997883-.41608696-1.5471058.01206522-.2517336.04434783-.5372482.09586957-.8451752.18260869-1.0891132.52239129-2.2815183.97043479-3.4391679-1.7403261.6996569-3.84815218 1.2447007-6.43597827 1.6633905-.14119565.0227372-.27358696.0432007-.39945652.0617153-.26576087.0389781-.49989131.069511-.69815218.0909489-.09554347.010719-.19076086.0152665-.28467391.0152665-.06456522 0-.12847826-.0022738-.19173913-.0068212-1.34673913-.0971204-2.42184782-1.2278102-2.4975-2.6293978-.01434782-.254657.0075-.5158102.06554348-.7698175.06423913-.2796679.17021739-.5430949.31532609-.7860584.075-.1260292.16141304-.2468613.25630434-.359573.18619566-.2192519.40728261-.448573.66097827-.6856898l.05282608-.0470985c1.3676087-1.1872081 2.86597826-2.2256497 4.45369565-3.0860913.21815218-.1185584.43076087-.2293212.6375-.3329379-.34043478-.1812482-.645-.3534015-.885-.50054384-.69717391-.42681022-1.12956521-1.17648905-1.15630434-2.00477372-.01434783-.44077737.08641304-.88220438.29152174-1.27685767.35217391-.67984306.98021739-1.16089781 1.7223913-1.31810949.47380435-.10036861 1.0773913-.15168978 1.79315217-.15168978l.10043479.00032482c1.54793474.01071898 3.29934784.24328832 4.46282604.59246715.5357609.16110949 1.0591305.35145256 1.5551087.56583212.9498913.40407299 1.8466305.93514964 2.6664131 1.57893796l1.7566304-.22574818c-.4956522-.89519708-.4816304-2.05836861.0401087-3.19815328.5204348-1.14595621 1.3875-2.0580438 1.6405435-2.31010219 1.4057609-1.40028832 2.6993478-2.08110584 3.9554348-2.08110584.5902174 0 1.1419565.15071533 1.6405435.44792336l.0740217.04417518.4115217.29720803 9.585 9.54768617c.6205435.6178029.8308696 1.5175474.5494566 2.3474562-.2931522.8646642-1.0711957 1.4672007-1.9822827 1.5344379-.0844565.0058467-.3893478.0873759-.8396739.393354-.1672826.1127117-.3218478.2364672-.4643478.3719161-.0701087.071135-.2272826.2400401-.3955435.4836533-.0984782.1416204-.18.2786934-.2442391.4092701-.0277174.0571678-.0534783.1153102-.0753261.1741021-.0433696.117584-.0476087.172803-.0476087.1750767-.0472826.6886131-.3984782 1.3080401-.963913 1.701719-.1695652.1179087-.3528261.2114562-.5458696.2796678-.2478261.087376-.5047826.1309015-.7656522.1309015-.1522826 0-.3052174-.0149416-.4545652-.0451496-.4405435-.0893248-.8429348-.3050037-1.1621739-.6239745l-4.3421739-4.3483321-4.3953261.5564124c-.3613043 1.5104015-.9342391 2.9535657-1.7073913 4.298635-1.2296739 2.1168358-3.5158696 4.604938-4.3705435 5.4163322-.1138043.1078394-.2351087.2036605-.3626087.2861642-.4072826.2660255-.8876087.4079708-1.3845652.4079708" fill="#303338"/><path d="m32.9250652 13.1508219c.5161957-.3504781 1.1765218-.681792 1.7964131-.726292.1376087-.0097445.2347826-.101343.2732608-.2143795.0384783-.1136862.0182609-.2488103-.0792391-.3459307l-9.4754348-9.43854744s0 0-.0003261 0l-.2158695-.15623722c-.9622826-.57330292-2.2666305.40114963-3.2080435 1.33922262-.39.38815694-.9332609 1.05760584-1.2407609 1.73420073-.0342391.07535767-.4265217.90071898-.1053261 1.46330292l2.3686957 2.37214234-6.555.84257665c-.0247826-.08412775-.0661957-.16370804-.1372826-.22737227-.7826087-.67659489-1.6480435-1.21676642-2.5966305-1.62018978-.4046739-.17507664-.8510869-.34040876-1.3405434-.48722628-1.0258696-.30825182-2.6259783-.50086861-3.911087-.50963869-.58434782-.00389781-1.10315217.03020803-1.47391304.10881387-.17967391.03800365-.31467391.15851095-.39163043.30727738-.05119566.09874452-.07695653.21048175-.07336957.31832116.00521739.16208395.07630435.31604745.22597826.40797081.2175.13317518.52239131.30500365.88369565.49567153.6326087.33293796 1.43804348.72206934 2.24902174 1.05630657.23184779.09549635.46434779.1864453.69293479.2702482.1144565.0422263.2282609.0825036.3404348.1205073.2243478.0763321.4434782.144219.6534782.2013868.2080435.0565183.4138044.1055657.6172826.147792.2031522.0425511.4033696.078281.6006522.1088139-.4379348.0402773-.9110869.1052408-1.4158695.2033357-.9505435.1890438-1.87630439.4566935-2.77663048.8032738-.50836956.1948905-1.0875.471635-1.6875.7971022-1.46934782.7967773-2.83695652 1.7445948-4.10380435 2.8437773-.19532608.1822227-.36423913.356-.50086956.5174343-.02771739.0324818-.05184783.0665876-.07271739.1016679-.04239131.0704854-.07173913.1455183-.08934783.2221752-.01760869.0769817-.02413043.154938-.01956522.2335438.02119566.3901058.30130435.7623467.68836957.790281.03880435.0029234.07858696.0019489.11934783-.0022737.1773913-.0191642.3873913-.0464489.62347826-.0812044.11804347-.0175401.2422826-.0367044.3723913-.0578175 2.0201087-.3267664 4.26130435-.8191898 6.17282607-1.6104453 1.5251087-.6314452 2.7958696-1.4522591 3.7822826-2.2224014.3286957-.2566059.626087-.5076898.8905435-.7444818l1.571087-.1019927c-.2041305.1757263-.4164131.3709416-.6329348.5872701-.2168478.2160036-.438587.4531204-.6619565.7129745-.4963044.5791496-.9436957 1.1937043-1.342174 1.8436642-.0619565.1003686-.1242391.2065839-.1865217.3179963-.8504348 1.5181971-1.59 3.485292-1.8834783 5.2376825-.0381521.2280219-.0629347.4368796-.0717391.6204015-.0071739.1477919.0348913.2838905.108587.3985511.0368478.0571679.0818478.1088138.1320652.1546131.2272826.2043102.5690217.2764197.8227174.1107628.0280435-.0185146.0551087-.0399526.0808695-.0643139.8983696-.8523212 2.9638044-3.1510547 4.0222827-4.9736058.810326-1.4097081 1.3640217-2.9214088 1.661413-4.5351022.0322826-.1728029.06-.3368358.0831522-.4904745.0029348-.0201387-.0016305-.0393029-.0003261-.0594416l6.765-.8562189 5.0197826 5.0268759c.0485869.0487226.1063043.0776313.1659783.0896496.0596739.0120182.1209782.007146.1767391-.0126679.0280435-.0097445.0544565-.0233868.078913-.0402774.0730435-.0506715.1252174-.1312262.1320652-.2341934.0159783-.2374416.0756522-.4804051.1643479-.7194708.0443478-.119208.0958695-.2377664.1526087-.3537263.1138043-.2325693.2491304-.4560438.3913043-.6613284.2132609-.3076022.4415218-.5742774.6355435-.767219.2279348-.2192518.4725-.4167409.7343478-.5931168" fill="#1fa19c"/><g fill="#fff"><path d="m6.78492391 8.31870657c.21293479.13025182.51032609.29818248.86152174.48365328.06652174-.00032481 2.59336955-.28486496 4.22380435.03995256 2.4958696.49729562 3.8416304 1.46947449 4.2391304 1.94890509.0609783.0737336 7.5-.649635 7.5-.649635l-.9782608-.97445257-6.1477174.85394527c-.0247826-.08445257-.0658696-.16403286-.1372826-.22737228-.7826087-.67691971-1.6480435-1.21709124-2.5966305-1.62018978-.4046739-.17507664-.8507608-.34040876-1.3405434-.4875511-1.0258696-.307927-2.62597831-.50086861-3.911087-.50963868-.58434783-.00389781-1.10315218.03020803-1.47391305.10881387-.17967391.03832846-.31434782.15883576-.39163043.30727737-.05119565.09906934-.07695652.21080657-.07336957.31864598.00521739.16208395.07630435.31604745.22597826.40764599"/><path d="m6.00075 14.0393277c.58565217-.3501532 1.63043478-1.29927 4.8913043-1.9489051-.1972826-.0305328-1.39271734-.4992445-1.62358691-.594416-.21423913.0727591-.42717391.1487664-.63847826.2302956-.50869565.1948905-1.0875.471635-1.6875.7971022-1.46934783.7964525-2.83695652 1.7445949-4.10380435 2.8434525-.19532608.1822227-.36423913.3563249-.50086956.5174343-.02771739.0328066-.05184783.0669124-.07304348.1019927-.04206522.0704854-.07141304.1451935-.08902174.2221752-.0176087.0769818-.02413043.1546132-.0198913.2335438.00880434.1614343.06391304.3179964.15065217.4505219 1.23358696-1.0563066 2.06380435-1.8787445 3.69423913-2.8531971"/><path d="m30.6716087 16.5019318c.0146739-.007146.03-.0126679.0433696-.0220876.0727174-.0506716.1252174-.1312263.1320652-.2341935.0006522-.0100693.0035869-.0204635.0045652-.0305328-.0622826.0928978-.1226087.1880693-.18.2868139"/><path d="m34.915337 11.8642522-9.4754348-9.43854746-.2158696-.15623722c-.9622826-.57330292-2.2666304.40114963-3.2083696 1.33889781-.3896739.38848175-.9332608 1.05793066-1.2404347 1.73452555-.0234783.05132116-.2080435.45084671-.2253261.87765693.2680435-.39432847.5706521-.74578102.8135869-.98809489.9417392-.93774818 2.5721739-2.23701825 3.5344566-1.66371533l.5419565.48105475 8.6044565 8.69016786c.375-.1874197.2882609-.2874635.6772826-.3153978.1376087-.0097445.2344565-.1013431.2732609-.2147044.0381521-.1133613.0179348-.2484854-.0795652-.3456058"/></g><path d="m44.8719783 32.7800967c-.1526087 0-.3055435-.0152664-.4545653-.0454744-.4408695-.089-.8429347-.3046789-1.1621739-.6239745l-12.42-12.4236204-.1304348-.2306205c-.2722826-.4807299-.4007608-1.0192773-.3815217-1.6010255.0045652-.1520146.0202174-.3095511.0463044-.466438.0417391-.2575803.1147826-.5284781.2158695-.8019744.0427174-.1153102.0919565-.2338686.1454348-.352427.5207609-1.1466059 1.3875-2.0583686 1.6408696-2.3107519l.0234782-.023062c.4020652-.3871825.8429348-.7383102 1.3105435-1.0436387.3097826-.2023613.6205435-.3761387.9225-.5164598.6378261-.2952592 1.2515217-.445 1.826087-.445.5201087 0 1.0043478.1188832 1.4393478.3534014l.1134783.0607409.4457608.3225438 12.1936957 12.1455766c.6205435.6184526.8311956 1.5178723.5494565 2.3481059-.2928261.8646642-1.0711957 1.4668759-1.9822826 1.5341131-.0844565.0061715-.3890218.0877007-.8393478.393354-.1672826.1127117-.3218479.236792-.4643479.3722409-.0701087.071135-.2272826.2397153-.3958695.4833285-.0984783.1419452-.18.2790182-.2442392.4095949-.0277174.0571678-.0534782.1149854-.075.1741022-.0436956.1172591-.0476087.1724781-.0479347.1747518-.0469566.6889379-.3981522 1.3083649-.9639131 1.701719-.1692391.1182335-.3525.211781-.5458696.2799927-.247826.0870511-.5044565.1309014-.765326.1309014" fill="#303338"/><path d="m37.179163 14.1192653-.2161956-.1562372c-.4141304-.2228248-.9675-.1062153-1.5084783.144219-.2318478.1075146-.4610869.2397153-.6763043.3800365-.3665218.2390657-.7076087.5109379-1.0232609.8146423-.39.3884818-.9332609 1.0576059-1.2407609 1.7345256-.0342391.0750328-.0652173.1503905-.0929347.2254233-.0557609.1500657-.0975.2988321-.1213044.4433759-.0117391.0724343-.018913.1435694-.0211956.2134051-.0068479.2098322.0316304.4066716.1301087.5807738l12.2321739 12.2355511c.0485869.0487226.1063043.0779562.1659782.0899744.0596739.0120183.1209783.0068212.1770652-.0126679.0277174-.0100693.0544566-.0233868.078587-.0402773.0730435-.0506716.1252174-.1315511.1320652-.2341935.0159783-.2377664.0756522-.4807299.1643478-.7194708.0443479-.1195328.0958696-.2377664.1526087-.3540511.1138044-.2322445.2491305-.4560438.3913044-.6610036.2132609-.307927.4415217-.5742774.6355435-.7675438.2279348-.218927.4725-.4164161.7343478-.592792.5165217-.3504781 1.1768478-.6821168 1.796413-.726292.1376087-.0100693.2347826-.101343.2732609-.2147043.0384783-.1133614.0182609-.2484854-.0792391-.3456059z" fill="#1fa19c"/><path d="m49.263163 26.156223-12.0841304-12.0370876-.2158696-.1562372c-.4141304-.2228248-.967826-.1062154-1.5084782.1445438-.2318478.1071898-.4614131.2393905-.6763044.3797116-.3665217.2393906-.7076087.510938-1.0235869.8146424-.3896739.3884817-.9332609 1.0579306-1.2404348 1.7345255-.0342391.0753577-.0655435.1503905-.0932609.2254234-.0554348.1500657-.1402174.5872701-.1425.6571058 0 .003573.0003261.0068212.0003261.0103942.2703261-.4005.5778261-.7581241.8236957-1.0033613.3159782-.3037044.6919565-.5288029 1.0235869-.8146424.8964131-.7727408 2.1329348-1.128416 2.5108696-.849073 3.2804348 2.4286606 11.5897826 11.4858723 11.5897826 11.4858723.3753261-.1874197.453587-.003573.8426087-.0315073.1376087-.0097445.2344565-.1013431.2732609-.2147044.0381521-.1133613.0179347-.2484854-.0795653-.3456058" fill="#fff"/></g><g transform="translate(203.782608 22.368613)"><path d="m.1691087 11.2385562s15.3570652-7.46528102 20.7107609-10.08006204c3.4131521 1.92389416 10.1344565 6.49212774 13.1611956 9.17187224-3.8093478-.0298832-19.4132609 1.9001825-30.67271737 4.6585329z" fill="#434446"/><path d="m18.4586087 2.76997883s10.7038043 7.0755 10.9711956 7.45001457c1.3402174-.1032919 3.8331522-.1773503 3.8331522-.1773503s-9.9198913-7.90378471-11.9442391-8.58850003c-1.7484783.66587591-2.8601087 1.31583576-2.8601087 1.31583576" fill="#fff"/><path d="m6.54735085 13.3519687c8.28858625-1.9754274 18.87113775-3.51803501 24.87977745-3.89832725-3.044924-2.37388413-7.5023763-5.42238026-10.427418-7.1223931-1.7448263.85583316-4.2027459 2.07943928-7.1950972 3.579538-.0724937.03634304-.0724937.03634304-.1449834.07268856-2.1837427 1.09493765-4.51474996 2.2681719-6.83985427 3.44141811-.76670182.38687727-1.481146.74771718-2.12732875 1.07433998zm-3.48745381-4.21285973c.18132361-.0917296.39172095-.19812978.62880049-.31797819.6773273-.34240236 1.43268131-.72392758 2.24693121-1.13479758 2.3264806-1.17394069 4.65891526-2.34789335 6.84431826-3.44366348.0725544-.03637799.0725544-.03637799.1451137-.07275392 3.2753642-1.64197623 5.9118971-2.95344045 7.6799727-3.81698046.2899231-.14160042.6313184-.13157148.9123604.02680182 3.7004575 2.08528837 10.2513147 6.64423959 13.1719393 9.23031351.6751079.59777583.2456955 1.70973853-.6575518 1.70272923-4.9296619-.0382547-18.083693 1.7406214-27.69459293 4.0953843-.40475775.0991696-.82814445-.0680247-1.05473863-.4165135l-2.82293478-4.341511c-.31566829-.4854796-.13977779-1.13639961.37788611-1.39844745.03874743-.01961442.03874743-.01961442.22249597-.11258328z" fill="#303338" fill-rule="nonzero"/></g><g transform="translate(202.478261 17.821168)"><path d="m.15348913 11.9889172 6.67793478-10.84273362s10.83065219.4729343 13.30206519 1.06117883c-10.14619562 6.5619635-17.69119562 12.70653649-17.69119562 12.70653649z" fill="#434446"/><path d="m6.38895652 1.5719219-1.00760869 1.78129927 11.09249997.93904744 2.9367392-2.06389051z" fill="#fff"/><path d="m2.59981602 10.2546504 1.53625481 2.1719443c.1058031-.0859795.217043-.1759524.33366831-.2698272.94129358-.7576715 2.04134042-1.6154737 3.29080431-2.55671713 2.91090475-2.19283654 6.14510825-4.47434241 9.66210535-6.77188867-2.2247055-.17857763-4.8022005-.35445086-10.22896962-.69442534zm-2.00794552-.42038775 5.19847826-9.18973722c.1841757-.32558111.53905692-.51756166.91349335-.49417366 7.38842529.46149475 9.75030139.63219009 12.66544589.88502746.0251961.00218517.0251961.00218517.050391.0043695.4306502.03733223.707475.06093747 1.0250338.08711474.9348034.07705851 1.2353905 1.29359183.4432778 1.79402966-4.4146996 2.78910142-8.4223383 5.57818794-11.94728949 8.23359667-1.2324094.928396-2.31597076 1.773343-3.2412575 2.5181302-.32297815.2599735-.60286643.4886498-.83848766.6839403-.14013451.1161479-.23365471.1947377-.27938402.2336806-.4380998.3730833-1.1034221.2899191-1.4353955-.1794222l-2.50173913-3.5369379c-.21743444-.307407-.23789233-.7120044-.0525668-1.03961815z" fill="#303338" fill-rule="nonzero"/></g><g transform="translate(197.586956 26.266423)"><path d="m6.51697826 12.7817642-4.90760869-7.07257661c-.90358696-1.30284306-.57619566-3.08868978.73141304-3.98875912 1.30760869-.90039416 3.10043478-.57427738 4.00434782.72824087l4.90728257 7.07290146c.9039131 1.3025183.5765218 3.088365-.731413 3.9887591-1.30728261.9003942-3.10043478.5739526-4.00402174-.7285657" fill="#f34a4e"/><path d="m1.1474357 4.60656633c-.2018176-1.07784971.229446-2.22265371 1.19334691-2.88613786 1.30760869-.90039416 3.10043478-.57427738 4.00434782.72824087l4.90728257 7.07290146c.9039131 1.3025183.5765218 3.088365-.731413 3.9887591-.496817.342184-1.06380768.5071775-1.62547642.5087442.05196738-.0305277.10320816-.063138.15361772-.09785 1.1347826-.7811861 1.4188044-2.3305657.63489131-3.4606059l-4.25804348-6.13645251c-.78391304-1.13004014-2.33967391-1.41328102-3.47413043-.63209489-.35230983.24260035-.62263204.55928811-.804423.91449553z" fill="#fff"/><path d="m7.19688694 12.065951c.65505307.9443715 1.95485414 1.1807364 2.90305476.5279854.9480923-.6525237 1.1854428-1.9472273.5300192-2.89159176l-4.69497819-6.76689191c-.65533021-.944451-1.95495638-1.18078414-2.90331455-.52807749-.94789331.65253951-1.18518786 1.94731239-.52978122 2.89165239zm-6.304452-5.65876084c-1.26986135-1.82967454-.81006063-4.3385291 1.0269633-5.60315527 1.83724712-1.26448368 4.35536709-.80657106 5.62509739 1.0233431l4.69491727 6.76680411c1.2699241 1.829765.8099842 4.3386534-1.0272013 5.6030946-1.83697972 1.2645958-4.3555261.8066205-5.62489029-1.0233269z" fill="#303338" fill-rule="nonzero"/></g><g transform="translate(191.391304 28.540146)"><path d="m7.99040217 15.0411949-6.36391304-9.17187227c-.91630435-1.32103285-.58467391-3.13221533.74184783-4.04527737l.2673913-.18417154c1.32619565-.91306204 3.14478261-.58239781 4.06108696.73863504l6.36423908 9.17187224c.9163044 1.3213577.5843479 3.1322154-.7418478 4.0456022l-.2673913.1838467c-1.3261956.9130621-3.1444565.5823978-4.06141303-.738635" fill="#f34a4e"/><path d="m1.11279656 4.06267617c.04663613-.86809921.48188273-1.70611235 1.2555404-2.23863091l.2673913-.18417154c1.32619565-.91306204 3.14478261-.58239781 4.06108696.73863504l6.36423908 9.17187224c.9163044 1.3213577.5843479 3.1322154-.7418478 4.0456022l-.2673913.1838467c-.56044.385853-1.2087551.549596-1.83979.5103497.0782334-.0038404.156454-.0108115.2344639-.0209471 1.0369566-.7876825 1.2815218-2.2542336.5321739-3.333927l-5.9638043-8.59532119c-.77119566-1.11152555-2.30152174-1.38989416-3.41706522-.62170073l-.32380435.2225c-.05602166.03870881-.10971642.07940858-.16119257.12189259z" fill="#fff"/><path d="m11.4961031 14.9778688.2667512-.1834062c.8818874-.6073797 1.1026692-1.8115097.4934591-2.6900218l-6.36433635-9.17201245c-.60909362-.8781282-1.81825242-1.09803029-2.69987226-.49105078l-.26764205.18434417c-.88179017.60694757-1.10251625 1.81113907-.49321936 2.68956034l6.3638574 9.17179202c.60974981.8783732 1.81872942 1.0982236 2.70100232.4907947zm-4.31035399.6175124-6.36409814-9.17213898c-1.22350946-1.7639294-.78028574-4.18197732.99030946-5.40070081l.26754951-.18428047c1.77069451-1.21909158 4.19868451-.77752833 5.4220462.98618806l6.36440026 9.1721046c1.2232938 1.764052.7800248 4.1816123-.9910378 5.4013907l-.2668851.1834984c-1.7706158 1.2190374-4.19811557.7775633-5.42228439-.9860615z" fill="#303338" fill-rule="nonzero"/></g><g transform="translate(133.021739 23.343066)"><path d="m67.9572717 31.0922474c0-17.7597226-14.9644565-29.88321163-33.423913-29.88321163s-33.42391305 12.12348903-33.42391305 29.88321163c0 17.7597227 14.02173915 29.8832117 33.42391305 29.8832117 19.7282609 0 33.423913-12.123489 33.423913-29.8832117" fill="#df51a3"/><path d="m67.9572717 31.0922474c0-17.7597226-14.9644565-29.88321163-33.423913-29.88321163s-33.42391305 12.12348903-33.42391305 29.88321163c0 17.7597227 14.02173915 29.8832117 33.42391305 29.8832117 19.7282609 0 33.423913-12.123489 33.423913-29.8832117" fill="#434446"/><path d="m62.2115227 47.8095655c2.5563176-4.2547258 3.9618251-9.3035388 3.9618251-14.9308217 0-17.3735146-14.6390217-29.23357665-32.6970652-29.23357665-18.0583696 0-32.6973913 11.86006205-32.6973913 29.23357665 0 4.5179211.92755569 8.6629695 2.63402008 12.3235544-2.11903976-4.0244527-3.2817266-8.6711639-3.2817266-13.7852332 0-17.7597227 14.96445652-29.88321172 33.42391302-29.88321172s33.4239131 12.12348902 33.4239131 29.88321172c0 6.2588184-1.7009638 11.8176315-4.7674861 16.3924974z" fill="#fff"/><path d="m68.9355326 31.0922474c0 18.280444-14.1080623 30.8576643-34.4021739 30.8576643-20.0827144 0-34.40217392-12.6779426-34.40217392-30.8576643 0-17.8962796 14.93048152-30.85766419 34.40217392-30.85766419s34.4021739 12.96138459 34.4021739 30.85766419zm-1.9565217 0c0-16.7557758-13.9992677-28.90875908-32.4456522-28.90875908s-32.44565218 12.15298328-32.44565218 28.90875908c0 17.0488613 13.39549598 28.9087592 32.44565218 28.9087592 19.2589573 0 32.4456522-11.7558289 32.4456522-28.9087592z" fill="#303338" fill-rule="nonzero"/></g><g transform="translate(139.869565 40.558394)"><path d="m39.774 1.69626204c-4.245 0-8.0181522 1.55197811-12.5775 1.55197811-4.245 0-7.7038043-1.55197811-12.5778261-1.55197811-6.8595652 0-12.42032607 5.85256205-12.42032607 12.68542336 0 3.8435657 1.84402174 7.1791168 4.5198913 9.5467117 2.06445652 1.8267737 5.54217387 4.0780839 10.25869567 4.0780839 5.9272826 0 5.9745652-2.8187664 10.3767391-2.8187664 4.0875 0 4.1347826 2.8187664 10.0620652 2.8187664 4.7165218 0 8.1942392-2.2513102 10.2590218-4.0780839 2.6755434-2.3675949 4.5195652-5.703146 4.5195652-9.5467117 0-6.83286131-5.5607609-12.68542336-12.4203261-12.68542336" fill="#f0e7e1"/><path d="m38.7201196 26.7072109c-5.9272826 0-5.9745653-2.8187664-10.0620653-2.8187664-4.4021739 0-4.4494565 2.8187664-10.3767391 2.8187664-4.7165217 0-8.1942391-2.2513102-10.25869563-4.0780839-2.67586957-2.3675949-4.51989131-5.703146-4.51989131-9.5467117 0-3.17054377 1.19836957-6.12865691 3.16728261-8.39036129-2.73228261 2.35590146-4.47163044 5.86880289-4.47163044 9.68963139 0 3.8435657 1.84402174 7.1791168 4.51989131 9.5467117 2.06445652 1.8267737 5.54217396 4.0780839 10.25869566 4.0780839 5.9272826 0 5.9745652-2.8187664 10.3767391-2.8187664 4.0875 0 4.1347826 2.8187664 10.0620652 2.8187664 4.7165218 0 8.1942392-2.2513102 10.2586957-4.0780839.4425-.3914051.8595652-.811719 1.2518478-1.2541205-2.0703261 1.8186533-5.5281522 4.0329343-10.2061956 4.0329343" fill="#fff"/><path d="m26.2182391 5.19714526c4.5593479 0 8.3325-1.55197811 12.5775-1.55197811 6.8595652 0 12.4203261 5.85256205 12.4203261 12.68542335 0 2.1142372-.5605435 4.0735365-1.5081522 5.8041642 1.7197827-2.1457445 2.8125-4.7982043 2.8125-7.7530693 0-6.83286131-5.5607608-12.68542336-12.420326-12.68542336-4.245 0-8.0181522 1.55197811-12.5775 1.55197811-4.245 0-7.7038044-1.55197811-12.5778261-1.55197811-4.6679348 0-8.83511177 2.5393584-10.95728568 6.42417592 2.27836956-2.81291971 5.81326391-4.47527081 9.65293778-4.47527081 4.8740218 0 8.3328261 1.55197811 12.5778261 1.55197811z" fill="#677487"/><g fill="#303338" fill-rule="nonzero"><path d="m40.2398804.23458321c7.6014374 0 13.8586957 6.45088985 13.8586957 14.12956209 0 4.0715376-1.8597468 7.83623-5.015728 10.6289426-3.0990684 2.742384-6.8596479 4.475072-11.2886198 4.475072-2.7797511 0-4.4388305-.4861973-6.4106453-1.5858706-.1254511-.0699636-.5989735-.3385723-.7123196-.401743-1.2234418-.6818555-2.0157945-.9357441-3.3118177-.9357441-1.4753163 0-2.3431653.2720402-3.7254813 1.01939-.096484.052164-.4924974.2687084-.5950767.3241908-2.0457395 1.1064844-3.6695816 1.5797769-6.4403116 1.5797769-4.428972 0-8.18955147-1.732688-11.28861544-4.4750681-3.15598558-2.7927165-5.0157324-6.5574089-5.0157324-10.6289465 0-7.67867224 6.2572583-14.12956209 13.85869564-14.12956209 2.1986475 0 3.8717155.22624053 6.9529037.82262691 1.1568134.22390965 1.291065.24958042 1.7556666.33310229 1.711607.30769716 3.0056906.4537416 4.334908.4537416 1.897139 0 3.3924591-.20501298 6.4608838-.78750744.9029877-.17141868 1.1597382-.21957096 1.5948542-.2973828 1.9820141-.35444377 3.4615974-.52458056 4.9877402-.52458056zm0 1.94890511c-1.3892391 0-2.7642543.15811254-4.6420151.49391269-.425516.07609505-.6789726.12362959-1.5743035.29359476-3.1842927.60449025-4.7704943.82196335-6.8271596.82196335-1.464367 0-2.8658742-.15816777-4.6823947-.48472533-.4771462-.08577701-.6133251-.11181632-1.7813786-.33790158-2.9662426-.57413783-4.5392221-.78684389-6.579705-.78684389-6.50554415 0-11.9021739 5.56362905-11.9021739 12.18065698 0 3.4879596 1.60350908 6.733949 4.35861984 9.1719333 2.76921581 2.4504955 6.09570486 3.9831761 9.98920626 3.9831761 2.4174494 0 3.729796-.3825025 5.5066993-1.3435808.0972649-.0526079.4934753-.26926.5953729-.324351 1.6450202-.8893809 2.8127584-1.2554258 4.6587974-1.2554258 1.6751098 0 2.7757529.3526722 4.2671358 1.1838581.1218731.0679231.5957164.3367138.7128029.4020125 1.6955228.9455862 3.0328287 1.337487 5.4548439 1.337487 3.8935014 0 7.2199904-1.5326806 9.9892106-3.98318 2.7551064-2.4379804 4.3586154-5.6839698 4.3586154-9.1719294 0-6.61702793-5.3966297-12.18065698-11.9021739-12.18065698z"/><path d="m9.47879105 17.0309266c-.13861583.5040895-.66122851.8008019-1.16728809.6627257-.50605957-.1380762-.80393158-.6586544-.66531575-1.1627439.93469054-3.3990901 4.04715989-5.7982555 7.63630189-5.7982555 3.1473896 0 5.9566489 1.8464221 7.2242951 4.6563515.2150696.4767345.001438 1.0368738-.4771596 1.2511063-.4785976.2142324-1.040926.0014325-1.2559957-.475302-.9637306-2.1362546-3.0986288-3.5394441-5.4911398-3.5394441-2.7276757 0-5.09377 1.8238418-5.80369805 4.405562z"/><path d="m46.0474867 16.5309084c.1386158.5040895-.1592562 1.0246677-.6653157 1.1627439-.5060596.1380762-1.0286723-.1586362-1.1672881-.6627257-.7099281-2.5817202-3.0760224-4.405562-5.8036981-4.405562-2.392511 0-4.5274092 1.4031895-5.4911398 3.5394441-.2150697.4767345-.7773981.6895344-1.2559957.475302-.4785976-.2142325-.6922292-.7743718-.4771595-1.2511063 1.2676462-2.8099294 4.0769054-4.6563515 7.224295-4.6563515 3.5891421 0 6.7016114 2.3991654 7.6363019 5.7982555z"/></g></g><use fill="#f34a4e" xlink:href="#a"/><use fill="#434446" xlink:href="#a"/><path d="m88.351 80h-3.249l-4.503-10.621c.1140006.937338.1994997 1.7859962.2565 2.546s.0855 1.6656614.0855 2.717v5.358h-2.28v-13.129h3.173l4.579 10.64c-.0760004-.5066692-.1519996-1.1748292-.228-2.0045s-.114-1.6561626-.114-2.4795v-6.156h2.28zm5.434-10.051v10.051h-2.432v-10.051zm-1.235-5.092c.4560023 0 .8264986.1424986 1.1115.4275s.4275.6364979.4275 1.0545-.1424986.7663319-.4275 1.045-.6554977.418-1.1115.418c-.4433356 0-.8074986-.1393319-1.0925-.418s-.4275-.6269979-.4275-1.045.1424986-.7694986.4275-1.0545.6491644-.4275 1.0925-.4275zm9.519 4.807c.899338 0 1.599164.269164 2.0995.8075s.7505 1.2888285.7505 2.2515v7.277h-2.432v-6.897c0-.5953363-.104499-1.0133321-.3135-1.254s-.516165-.361-.9215-.361c-.418002 0-.794832.129832-1.1305.3895-.3356683.259668-.6618318.6364975-.9785 1.1305v6.992h-2.432v-10.051h2.109l.19 1.311c.8233375-1.0640053 1.842994-1.596 3.059-1.596zm8.094 9.443c0 .9880049-.142499 1.7954969-.4275 2.4225s-.687164 1.1304981-1.2065 1.5105-1.196996.7409983-2.033 1.083l-.779-1.767c.494002-.2280011.880332-.4528322 1.159-.6745s.490833-.5224981.6365-.9025.2185-.8866635.2185-1.52v-9.31h2.432zm-1.235-14.25c.456002 0 .826499.1424986 1.1115.4275s.4275.6364979.4275 1.0545-.142499.7663319-.4275 1.045-.655498.418-1.1115.418c-.443336 0-.807499-.1393319-1.0925-.418s-.4275-.6269979-.4275-1.045.142499-.7694986.4275-1.0545.649164-.4275 1.0925-.4275zm11.59 12.483c0 .3926686.060166.6808324.1805.8645s.313499.3261662.5795.4275l-.513 1.615c-.570003-.0506669-1.035498-.1899989-1.3965-.418s-.636499-.576331-.8265-1.045c-.342002.5066692-.769497.8834988-1.2825 1.1305s-1.086163.3705-1.7195.3705c-1.000672 0-1.79233-.2849971-2.375-.855s-.874-1.3173287-.874-2.242c0-1.0893388.395829-1.9221638 1.1875-2.4985s1.922159-.8645 3.3915-.8645h1.254v-.57c0-.6460032-.148832-1.098832-.4465-1.3585s-.77583-.3895-1.4345-.3895c-.73467 0-1.621328.1773316-2.66.532l-.57-1.653c1.254006-.4813357 2.469994-.722 3.648-.722 2.571346 0 3.857 1.1526551 3.857 3.458zm-4.332 1.178c.823337 0 1.469331-.4116626 1.938-1.235v-2.033h-1.007c-1.570675 0-2.356.5826608-2.356 1.748 0 .4813357.120332.8549987.361 1.121s.595331.399 1.064.399z" fill="#f34a4e"/></g></svg>